<?xml version="1.0" encoding="UTF-8"?>
<svg width="512" height="512" viewBox="0 0 512 512" fill="none" xmlns="http://www.w3.org/2000/svg">
  <rect width="512" height="512" rx="100" fill="#06C755"/>
  <g transform="translate(96, 96) scale(0.8)">
    <path d="M408 176c0-79.402-64.599-144-144-144S120 96.598 120 176c0 73.537 55.934 134.561 128 142.433V420c0 5.523 4.477 10 10 10s10-4.477 10-10v-88h10c74.439 0 130-55.562 130-156z" fill="white"/>
    <path d="M213 180v60c0 3.866-3.134 7-7 7s-7-3.134-7-7v-60c0-3.866 3.134-7 7-7s7 3.134 7 7zm94 0v60c0 3.866-3.134 7-7 7s-7-3.134-7-7v-60c0-3.866 3.134-7 7-7s7 3.134 7 7zm-47 0v38c0 3.866-3.134 7-7 7s-7-3.134-7-7v-38c0-3.866 3.134-7 7-7s7 3.134 7 7z" fill="#06C755"/>
  </g>
  <g transform="translate(256, 370) scale(1.2)">
    <path d="M50 0 L100 50 L50 100 L0 50 Z" fill="white"/>
    <path d="M43 25 L57 25 L57 75 L43 75 Z" fill="#06C755"/>
    <path d="M25 43 L75 43 L75 57 L25 57 Z" fill="#06C755"/>
  </g>
</svg>